{"title":"ZENDA MARATHI MOVIE DVD RIP &lt;a class=&quot;__cf_email__&quot; href=&quot;/cdn-cgi/l/email-protection&quot; data-cfemail=&quot;03415a7d7d6f6c75666a706f6a6566656c716f6c7566717043646e626a6f2d606c6e&quot;&gt;[email protected]&lt;/a&gt;&lt;script cf-hash='f9e31' type=&quot;text/javascript&quot;&gt;/* &lt;![CDATA[ */!function(){try{var t=&quot;currentScript&quot;in document?document.currentScript:function(){for(var t=document.getElementsByTagName(&quot;script&quot;),e=t.length;e--;)if(t[e].getAttribute(&quot;cf-hash&quot;))return t[e]}();if(t&amp;&amp;t.previousSibling){var e,r,n,i,c=t.previousSibling,a=c.getAttribute(&quot;data-cfemail&quot;);if(a){for(e=&quot;&quot;,r=parseInt(a.substr(0,2),16),n=2;a.length-n;n+=2)i=parseInt(a.substr(n,2),16)^r,e+=String.fromCharCode(i);e=document.createTextNode(e),c.parentNode.replaceChild(e,c)}}}catch(u){}}();/* ]]&gt; */&lt;/script&gt;~~N","uid":5544996,"size":726452852,"categoryP":"video","categoryS":"movies","magnet":"?xt=urn:btih:a0849cd814e93c0cdb94d5d47099a9f9c4246293&amp;dn=ZENDA+MARATHI+MOVIE+DVD+RIP+BY%7E%7Eloveislifeforlovers%40gmail.com%7E%7EN&amp;tr=udp%3A%2F%2Ftracker.openbittorrent.com%3A80&amp;tr=udp%3A%2F%2Fopen.demonii.com%3A1337&amp;tr=udp%3A%2F%2Ftracker.coppersurfer.tk%3A6969&amp;tr=udp%3A%2F%2Fexodus.desync.com%3A6969","seeders":4,"leechers":1,"uploader":"nikhilsweet","files":1,"time":1273353665,"description":"[b]General\nComplete name                    : ZENDA MARATHI MOVIE DVD RIP &lt;a class=&quot;__cf_email__&quot; href=&quot;/cdn-cgi/l/email-protection&quot; data-cfemail=&quot;692b30171705061f0c001a05000f0c0f061b05061f0c1b1a290e04080005470a0604&quot;&gt;[email&amp;#160;protected]&lt;/a&gt;&lt;script cf-hash='f9e31' type=&quot;text/javascript&quot;&gt;\n/* &lt;![CDATA[ */!function(){try{var t=&quot;currentScript&quot;in document?document.currentScript:function(){for(var t=document.getElementsByTagName(&quot;script&quot;),e=t.length;e--;)if(t[e].getAttribute(&quot;cf-hash&quot;))return t[e]}();if(t&amp;&amp;t.previousSibling){var e,r,n,i,c=t.previousSibling,a=c.getAttribute(&quot;data-cfemail&quot;);if(a){for(e=&quot;&quot;,r=parseInt(a.substr(0,2),16),n=2;a.length-n;n+=2)i=parseInt(a.substr(n,2),16)^r,e+=String.fromCharCode(i);e=document.createTextNode(e),c.parentNode.replaceChild(e,c)}}}catch(u){}}();/* ]]&gt; */&lt;/script&gt;~~NIKHIL\n\nNOTE:- THOUGH THE MOVIE FLASHES CENSORED BUT IN REALILTIY THE MOVIE IS...\n\nAS THE NAME IT SELF SUGGEST THE QUALITY FOR THE MOVIE SO PLS DO NOT REQUEST FOR THE SCREEN SHOTS OR SAMPLES OF THE MOVIE..\n\nIF THE QUALITY AND THE STATEMENT DIFFERS ..THEN U CAN REQUEST THE MODERATOR FOR REMOVAL OF THIS TORRENTS FROM THETEAM IMMEDIATELY.\n\n[img]http://fenilandbollywood.com/wp-content/uploads/2010/01/zenda.jpg[/img]\n\nFormat                           : DivX\nFormat/Info                      : Hack of AVI\nFile size                        : 693 MiB\nDuration                         : 2h 1mn\nOverall bit rate                 : 798 Kbps\n\nVideo\nID                               : 0\nFormat                           : MPEG-4 Visual\nFormat settings, BVOP            : Yes\nFormat settings, QPel            : No\nFormat settings, GMC             : No warppoints\nFormat settings, Matrix          : Default (H.263)\nMuxing mode                      : Packed bitstream\nCodec ID                         : DX50\nCodec ID/Hint                    : DivX 5\nDuration                         : 2h 1mn\nBit rate                         : 661 Kbps\nWidth                            : 720 pixels\nHeight                           : 576 pixels\nDisplay aspect ratio             : 4:3\nFrame rate                       : 25.000 fps\nStandard                         : PAL\nResolution                       : 8 bits\nColorimetry                      : 4:2:0\nScan type                        : Progressive\nBits/(Pixel*Frame)               : 0.064\nStream size                      : 573 MiB (83%)\nTitle                            : Video \nWriting library                  : DivX 2151\n\nAudio\nID                               : 1\nFormat                           : MPEG Audio\nFormat version                   : Version 1\nFormat profile                   : Layer 3\nCodec ID                         : 55\nCodec ID/Hint                    : MP3\nDuration                         : 2h 1mn\nBit rate mode                    : Constant\nBit rate                         : 128 Kbps\nChannel(s)                       : 2 channels\nSampling rate                    : 48.0 KHz\nStream size                      : 111 MiB (16%)\nAlignment                        : Split accross interleaves\nInterleave, duration             : 40 ms (1.00 video frame)\nInterleave, preload duration     : 500 ms\nTitle                            : Audio \n[/b]","torrent":{"xt":"urn:btih:a0849cd814e93c0cdb94d5d47099a9f9c4246293","amp;dn":"ZENDA+MARATHI+MOVIE+DVD+RIP+BY%7E%7Eloveislifeforlovers%40gmail.com%7E%7EN","amp;tr":["udp%3A%2F%2Ftracker.openbittorrent.com%3A80","udp%3A%2F%2Fopen.demonii.com%3A1337","udp%3A%2F%2Ftracker.coppersurfer.tk%3A6969","udp%3A%2F%2Fexodus.desync.com%3A6969"],"infoHash":"a0849cd814e93c0cdb94d5d47099a9f9c4246293","infoHashBuffer":{"type":"Buffer","data":[160,132,156,216,20,233,60,12,219,148,213,212,112,153,169,249,196,36,98,147]},"announce":[],"urlList":[]}}